<?xml version="1.0" encoding="UTF-8"?>
<svg version="1.1" xmlns="http://www.w3.org/2000/svg" width="2105" height="2043">
<path d="M0 0 C0.66 0 1.32 0 2 0 C4.68671997 10.4753728 7.13668713 20.97375456 9.34619141 31.56176758 C9.6595861 33.05205317 9.97325293 34.54228155 10.28716469 36.03245831 C11.13458993 40.05896405 11.9783028 44.08623942 12.82135487 48.11366272 C13.72569122 52.43037991 14.63364273 56.74633672 15.54119873 61.06237793 C17.0956284 68.45693704 18.64799233 75.85192717 20.19891357 83.2472229 C22.64839187 94.92681267 25.1023231 106.6054645 27.55712891 118.28393555 C28.17719691 121.23396174 28.79725948 124.18398907 29.4173218 127.13401645 C29.83052179 129.09986048 30.24372781 131.06570325 30.65693986 133.03154474 C32.10438112 139.91785922 33.55129282 146.80428483 34.99801636 153.69075012 C41.51161397 184.69420293 48.05001454 215.69233081 54.60782623 246.6864624 C55.89881666 252.78831316 57.18936636 258.89025714 58.47998047 264.9921875 C60.04043952 272.36973533 61.60096664 279.74726874 63.16171265 287.12475586 C67.18102954 306.12422304 71.19678192 325.1244418 75.2109375 344.125 C75.36438299 344.85131677 75.51782847 345.57763355 75.67592382 346.32595992 C77.55880913 355.23844057 79.44157225 364.15094703 81.32429135 373.06346279 C82.90713483 380.55639543 84.49006492 388.04930977 86.07300544 395.5422219 C86.86604514 399.29610706 87.6590819 403.04999285 88.45211792 406.80387878 C88.68794254 407.92016937 88.68794254 407.92016937 88.92853129 409.05901128 C90.04311618 414.33497717 91.15768577 419.61094629 92.27224731 424.88691711 C98.09027926 452.42757636 103.90868683 479.96815624 109.72717845 507.50871837 C111.90964759 517.83896335 114.09207198 528.16921778 116.27446115 538.49947965 C117.67905981 545.1480923 119.08366872 551.79670278 120.48828125 558.4453125 C120.72005534 559.54239576 120.72005534 559.54239576 120.95651174 560.66164231 C125.36315216 581.52007836 129.77032414 602.37840203 134.17794025 623.23663193 C137.18127642 637.44938968 140.18443588 651.66218477 143.1875 665.875 C143.34322542 666.61200905 143.49895084 667.34901811 143.65939522 668.10836077 C153.17227484 713.13050524 162.6752987 758.15471945 172.17031002 803.18063545 C180.70746575 843.66425654 189.25402531 884.14587961 197.8125 924.625 C198.07720093 925.87695915 198.34190186 927.1289183 198.61462402 928.41881561 C199.96022109 934.78305869 201.30583994 941.14729716 202.65145874 947.51153564 C202.92054424 948.7842054 203.18962975 950.05687515 203.46686935 951.36811066 C204.01319421 953.95200928 204.55952244 956.53590718 205.10585403 959.11980438 C211.83297688 990.93630568 218.55495015 1022.75389468 225.27658796 1054.57155514 C226.0662721 1058.30960669 226.85596656 1062.04765606 227.6456604 1065.78570557 C230.18792911 1077.81965569 232.73017976 1089.85360963 235.27238464 1101.88757324 C241.09037326 1129.42801326 246.90873302 1156.96837486 252.72717845 1184.50871837 C254.90964759 1194.83896335 257.09207198 1205.16921778 259.27446115 1215.49947965 C260.67905981 1222.1480923 262.08366872 1228.79670278 263.48828125 1235.4453125 C263.72005534 1236.54239576 263.72005534 1236.54239576 263.95651174 1237.66164231 C268.36315216 1258.52007836 272.77032414 1279.37840203 277.17794025 1300.23663193 C280.18127642 1314.44938968 283.18443588 1328.66218477 286.1875 1342.875 C286.42108813 1343.98051358 286.42108813 1343.98051358 286.65939522 1345.10836077 C296.17227484 1390.13050524 305.6752987 1435.15471945 315.17031002 1480.18063545 C323.70746575 1520.66425654 332.25402531 1561.14587961 340.8125 1601.625 C341.20955139 1603.50293873 341.20955139 1603.50293873 341.61462402 1605.41881561 C342.96022109 1611.78305869 344.30583994 1618.14729716 345.65145874 1624.51153564 C345.92054424 1625.7842054 346.18962975 1627.05687515 346.46686935 1628.36811066 C347.01319421 1630.95200928 347.55952244 1633.53590718 348.10585403 1636.11980438 C354.833433 1667.93846293 361.55587901 1699.75820569 368.27795696 1731.57802677 C368.90644326 1734.55304323 369.53493419 1737.52805871 370.16342521 1740.50307417 C372.69073712 1752.46632016 375.21803896 1764.42956828 377.74529719 1776.3928256 C381.14494974 1792.48571941 384.54473284 1808.57858562 387.94482422 1824.67138672 C388.18988457 1825.83127472 388.18988457 1825.83127472 388.43989563 1827.01459479 C390.08611353 1834.80625601 391.73235855 1842.59791148 393.37871504 1850.38954341 C394.19406099 1854.24829915 395.00938938 1858.1070586 395.82470703 1861.96582031 C395.98533945 1862.72606577 396.14597187 1863.48631123 396.31147194 1864.26959443 C398.53887738 1874.81169137 400.76537369 1885.35397995 402.99117374 1895.89641595 C404.36505094 1902.40363371 405.73914464 1908.91080576 407.11328125 1915.41796875 C407.26129401 1916.11890545 407.40930677 1916.81984216 407.56180477 1917.54201937 C411.49138608 1936.15078092 415.43202539 1954.75714834 419.38751411 1973.36042404 C420.75649239 1979.80123923 422.12303066 1986.24257258 423.48946667 1992.68392754 C424.72007985 1998.4833422 425.95503875 2004.2818075 427.19358158 2010.07953358 C427.92967831 2013.53012188 428.6616979 2016.98156508 429.39249611 2020.43327904 C429.72449784 2021.99710121 430.05824989 2023.56055302 430.39392662 2025.12359047 C430.84456829 2027.22279791 431.28902872 2029.3232211 431.73193359 2031.42407227 C431.97898041 2032.58350845 432.22602722 2033.74294464 432.4805603 2034.93751526 C433 2038 433 2038 433 2043 C-261.65 2043 -956.3 2043 -1672 2043 C-1671.17037538 2038.85187691 -1670.33509718 2036.2823964 -1668.515625 2032.58984375 C-1667.99959717 2031.53273193 -1667.48356934 2030.47562012 -1666.9519043 2029.38647461 C-1666.39027588 2028.24831299 -1665.82864746 2027.11015137 -1665.25 2025.9375 C-1664.04990422 2023.48085642 -1662.8547965 2021.02180036 -1661.66015625 2018.5625 C-1661.35378738 2017.93282822 -1661.04741852 2017.30315643 -1660.73176575 2016.65440369 C-1657.63899295 2010.28484511 -1654.65513674 2003.86622129 -1651.6875 1997.4375 C-1646.85422371 1986.98002086 -1641.97488157 1976.5455366 -1637.0625 1966.125 C-1632.02008996 1955.42663591 -1626.99462662 1944.7207579 -1622 1934 C-1616.68773618 1922.59811419 -1611.34064127 1911.21295917 -1605.97949219 1899.83398438 C-1601.29911194 1889.89883397 -1596.6382027 1879.95490819 -1592 1870 C-1586.68764043 1858.59815854 -1581.34064149 1847.21295965 -1575.97949219 1835.83398438 C-1571.29911194 1825.89883397 -1566.6382027 1815.95490819 -1562 1806 C-1556.68764043 1794.59815854 -1551.34064149 1783.21295965 -1545.97949219 1771.83398438 C-1541.29911154 1761.89883313 -1536.63836976 1751.95483083 -1532 1742 C-1527.06341837 1731.40638358 -1522.10357153 1720.82394923 -1517.125 1710.25 C-1516.62617813 1709.19048126 -1516.62617813 1709.19048126 -1516.11727905 1708.10955811 C-1513.06061138 1701.61759419 -1510.00239244 1695.12636169 -1506.94287109 1688.63574219 C-1504.89873904 1684.29914598 -1502.85523216 1679.9622558 -1500.8125 1675.625 C-1500.47784729 1674.91444458 -1500.14319458 1674.20388916 -1499.79840088 1673.47180176 C-1494.80597844 1662.86837856 -1489.8558042 1652.24619823 -1484.93066406 1641.61132812 C-1480.33840211 1631.70512278 -1475.6914834 1621.82514659 -1471.03662109 1611.94824219 C-1466.33671472 1601.97521552 -1461.65604853 1591.99357552 -1457 1582 C-1452.06350695 1571.40634257 -1447.10357132 1560.82394879 -1442.125 1550.25 C-1441.62617813 1549.19048126 -1441.62617813 1549.19048126 -1441.11727905 1548.10955811 C-1438.06061138 1541.61759419 -1435.00239244 1535.12636169 -1431.94287109 1528.63574219 C-1429.89873762 1524.29914665 -1427.85525844 1519.96224342 -1425.8125 1515.625 C-1425.47751495 1514.91377991 -1425.14252991 1514.20255981 -1424.7973938 1513.4697876 C-1419.82800752 1502.91601651 -1414.9034014 1492.34243503 -1410.00317383 1481.75634766 C-1405.187217 1471.36864246 -1400.29408165 1461.01804238 -1395.39675903 1450.66851807 C-1390.72616791 1440.79641302 -1386.08546005 1430.91200456 -1381.5 1421 C-1376.19245466 1409.52712422 -1370.80339488 1398.09425395 -1365.39648438 1386.66796875 C-1360.72598658 1376.79604623 -1356.085374 1366.91181854 -1351.5 1357 C-1346.19245466 1345.52712422 -1340.80339488 1334.09425395 -1335.39648438 1322.66796875 C-1330.72598658 1312.79604623 -1326.085374 1302.91181854 -1321.5 1293 C-1316.19245466 1281.52712422 -1310.80339488 1270.09425395 -1305.39648438 1258.66796875 C-1300.72598636 1248.79604578 -1296.08541868 1238.91179818 -1291.5 1229 C-1286.57267439 1218.35014288 -1281.58050949 1207.73235371 -1276.5625 1197.125 C-1271.32560976 1186.05483109 -1266.10751168 1174.97657145 -1260.9375 1163.875 C-1255.98372215 1153.23795755 -1251.00137217 1142.61474865 -1246 1132 C-1240.97895886 1121.34306572 -1235.97528148 1110.67837555 -1231 1100 C-1225.68764043 1088.59815854 -1220.34064149 1077.21295965 -1214.97949219 1065.83398438 C-1210.29911194 1055.89883397 -1205.6382027 1045.95490819 -1201 1036 C-1195.68764043 1024.59815854 -1190.34064149 1013.21295965 -1184.97949219 1001.83398438 C-1180.29911194 991.89883397 -1175.6382027 981.95490819 -1171 972 C-1165.68764043 960.59815854 -1160.34064149 949.21295965 -1154.97949219 937.83398438 C-1150.29911194 927.89883397 -1145.6382027 917.95490819 -1141 908 C-1135.68764043 896.59815854 -1130.34064149 885.21295965 -1124.97949219 873.83398438 C-1120.29911194 863.89883397 -1115.6382027 853.95490819 -1111 844 C-1105.68764043 832.59815854 -1100.34064149 821.21295965 -1094.97949219 809.83398438 C-1090.29911194 799.89883397 -1085.6382027 789.95490819 -1081 780 C-1075.68732384 768.59747905 -1070.34020377 757.21150647 -1064.97848511 745.83197021 C-1060.0324306 735.33357542 -1055.11320215 724.82307695 -1050.21389771 714.30279541 C-1044.96419615 703.0334837 -1039.65597676 691.79225598 -1034.33963013 680.55426025 C-1029.16323896 669.60964266 -1024.03626256 658.64395212 -1018.95288086 647.65576172 C-1014.51685021 638.08085417 -1010.01332427 628.53865697 -1005.5 619 C-1000.34277136 608.09814468 -995.20384277 597.18863248 -990.125 586.25 C-989.34697021 584.57780396 -989.34697021 584.57780396 -988.55322266 582.87182617 C-985.94730265 577.25656095 -983.3788205 571.62728969 -980.859375 565.97265625 C-980.35647949 564.85149414 -979.85358398 563.73033203 -979.33544922 562.57519531 C-978.38520657 560.45231956 -977.44364477 558.32552956 -976.51220703 556.19433594 C-976.09310059 555.26008789 -975.67399414 554.32583984 -975.2421875 553.36328125 C-974.8797998 552.54126221 -974.51741211 551.71924316 -974.14404297 550.87231445 C-973 549 -973 549 -970 548 C-967.86227062 549.2708304 -965.97357551 550.56717245 -964 552.0625 C-963.0867395 552.73490723 -963.0867395 552.73490723 -962.1550293 553.42089844 C-960.81411231 554.40980588 -959.47662829 555.40338032 -958.14208984 556.40087891 C-955.94264997 558.04281316 -953.73270135 559.66959683 -951.51953125 561.29296875 C-947.49209435 564.24892836 -943.47278067 567.21571463 -939.45556641 570.18554688 C-935.47350788 573.12794685 -931.48656062 576.0637044 -927.5 579 C-925.91664211 580.16663334 -924.3333088 581.33330004 -922.75 582.5 C-921.96625 583.0775 -921.1825 583.655 -920.375 584.25 C-913.25 589.5 -913.25 589.5 -910.87475586 591.25024414 C-909.29231815 592.41620806 -907.70979869 593.58206104 -906.12719727 594.74780273 C-902.15448113 597.67431443 -898.18323006 600.60277534 -894.21484375 603.53515625 C-886.44400126 609.27423482 -878.65511304 614.98429619 -870.8125 620.625 C-864.49578305 625.16841138 -858.24819713 629.79283587 -852.03833008 634.48095703 C-847.07235234 638.22032047 -842.04849805 641.87300738 -837 645.5 C-830.61978979 650.08373464 -824.30875115 654.74697872 -818.0390625 659.48046875 C-813.07277455 663.21990691 -808.0487367 666.87283592 -803 670.5 C-796.61978979 675.08373464 -790.30875115 679.74697872 -784.0390625 684.48046875 C-779.07277455 688.21990691 -774.0487367 691.87283592 -769 695.5 C-762.61978979 700.08373464 -756.30875115 704.74697872 -750.0390625 709.48046875 C-745.07277455 713.21990691 -740.0487367 716.87283592 -735 720.5 C-729.28549084 724.60547501 -723.61574508 728.7604095 -718 733 C-711.70007553 737.75445349 -705.32701953 742.39770104 -698.91967773 747.00610352 C-691.03008877 752.68556315 -683.20931251 758.45674297 -675.39111328 764.23388672 C-671.43008838 767.15956103 -667.46484283 770.07950306 -663.5 773 C-661.91664621 774.1666389 -660.33331288 775.33330558 -658.75 776.5 C-657.96625 777.0775 -657.1825 777.655 -656.375 778.25 C-635 794 -613.625 809.75 -592.25 825.5 C-591.46536377 826.07814453 -590.68072754 826.65628906 -589.87231445 827.25195312 C-588.29790018 828.41206491 -586.72351837 829.57222076 -585.14916992 830.73242188 C-581.05464781 833.74975078 -576.95946939 836.76618312 -572.86328125 839.78125 C-572.01765625 840.40386719 -571.17203125 841.02648437 -570.30078125 841.66796875 C-568.69812842 842.84794391 -567.09527917 844.02765236 -565.4921875 845.20703125 C-564.75871094 845.74714844 -564.02523438 846.28726563 -563.26953125 846.84375 C-562.56135254 847.36195313 -561.85317383 847.88015625 -561.12353516 848.4140625 C-559.65677925 849.50949206 -558.20942263 850.6312106 -556.77880859 851.7734375 C-555.71847412 852.61261719 -555.71847412 852.61261719 -554.63671875 853.46875 C-554.00854248 853.97857422 -553.38036621 854.48839844 -552.7331543 855.01367188 C-552.16121338 855.33916016 -551.58927246 855.66464844 -551 856 C-547.64494693 854.88164898 -547.3932031 854.49251461 -545.64453125 851.625 C-545.19561523 850.90038574 -544.74669922 850.17577148 -544.28417969 849.42919922 C-543.55569824 848.22674561 -543.55569824 848.22674561 -542.8125 847 C-541.73148798 845.25197344 -540.6494021 843.50461066 -539.56640625 841.7578125 C-538.98906738 840.82227539 -538.41172852 839.88673828 -537.81689453 838.92285156 C-534.67872618 833.87445712 -531.46158099 828.87688657 -528.25 823.875 C-526.8865724 821.74748962 -525.52329291 819.61988431 -524.16015625 817.4921875 C-523.4758252 816.42452148 -522.79149414 815.35685547 -522.08642578 814.25683594 C-519.99198784 810.98749331 -517.89989612 807.71666162 -515.80859375 804.4453125 C-509.63267452 794.78542941 -503.44932724 785.13107176 -497.21044922 775.51171875 C-490.42485771 765.03923078 -483.72106396 754.51395421 -477 744 C-461.38293118 719.56976879 -461.38293118 719.56976879 -454.08081055 708.31835938 C-449.74216147 701.62282325 -445.46832851 694.88636825 -441.19091797 688.15161133 C-437.22018575 681.90436218 -433.21481961 675.68098332 -429.18359375 669.47265625 C-425.42132253 663.67020297 -421.70755945 657.83752983 -418 652 C-413.90036461 645.54580699 -409.78754292 639.10131826 -405.625 632.6875 C-398.36131176 621.49387659 -391.1870517 610.24291228 -384 599 C-368.38293118 574.56976879 -368.38293118 574.56976879 -361.08081055 563.31835938 C-356.74216147 556.62282325 -352.46832851 549.88636825 -348.19091797 543.15161133 C-344.22018575 536.90436218 -340.21481961 530.68098332 -336.18359375 524.47265625 C-332.42132253 518.67020297 -328.70755945 512.83752983 -325 507 C-320.90036461 500.54580699 -316.78754292 494.10131826 -312.625 487.6875 C-305.36131176 476.49387659 -298.1870517 465.24291228 -291 454 C-275.38293118 429.56976879 -275.38293118 429.56976879 -268.08081055 418.31835938 C-263.74216147 411.62282325 -259.46832851 404.88636825 -255.19091797 398.15161133 C-251.22018575 391.90436218 -247.21481961 385.68098332 -243.18359375 379.47265625 C-239.42132253 373.67020297 -235.70755945 367.83752983 -232 362 C-227.90036461 355.54580699 -223.78754292 349.10131826 -219.625 342.6875 C-212.36131176 331.49387659 -205.1870517 320.24291228 -198 309 C-182.38293118 284.56976879 -182.38293118 284.56976879 -175.08081055 273.31835938 C-170.74216147 266.62282325 -166.46832851 259.88636825 -162.19091797 253.15161133 C-158.22018575 246.90436218 -154.21481961 240.68098332 -150.18359375 234.47265625 C-146.42132253 228.67020297 -142.70755945 222.83752983 -139 217 C-134.90036461 210.54580699 -130.78754292 204.10131826 -126.625 197.6875 C-119.36131176 186.49387659 -112.1870517 175.24291228 -105 164 C-89.38293118 139.56976879 -89.38293118 139.56976879 -82.08081055 128.31835938 C-77.74216147 121.62282325 -73.46832851 114.88636825 -69.19091797 108.15161133 C-65.22018575 101.90436218 -61.21481961 95.68098332 -57.18359375 89.47265625 C-53.42132253 83.67020297 -49.70755945 77.83752983 -46 72 C-41.90036414 65.54580625 -37.78748455 59.10135668 -33.625 52.6875 C-29.07994173 45.68213194 -24.56584975 38.65725152 -20.0625 31.625 C-19.38316406 30.56571289 -18.70382812 29.50642578 -18.00390625 28.41503906 C-14.76370007 23.35454465 -11.54406133 18.28360823 -8.37890625 13.17578125 C-7.8264624 12.28745605 -7.27401855 11.39913086 -6.70483398 10.48388672 C-5.67338441 8.82138957 -4.64787304 7.15518934 -3.62915039 5.48486328 C-2.47232596 3.62265811 -1.24371908 1.80532925 0 0 Z M-924 1071 C-924 1283.52 -924 1496.04 -924 1715 C-886.38 1715 -848.76 1715 -810 1715 C-810 1657.91 -810 1600.82 -810 1542 C-809.34 1542 -808.68 1542 -808 1542 C-807.76796875 1542.68964844 -807.5359375 1543.37929687 -807.296875 1544.08984375 C-805.72453161 1547.61814442 -803.5741057 1550.50852691 -801.25 1553.5625 C-796.74425342 1559.59283824 -792.36573396 1565.69852378 -788.0625 1571.875 C-787.47065918 1572.72368652 -786.87881836 1573.57237305 -786.26904297 1574.44677734 C-785.08332572 1576.14717939 -783.89777691 1577.8476989 -782.71240234 1579.54833984 C-780.11266786 1583.27040054 -777.49533588 1586.97992544 -774.875 1590.6875 C-774.38781494 1591.3769873 -773.90062988 1592.06647461 -773.39868164 1592.77685547 C-772.42182597 1594.15909731 -771.44485714 1595.54125919 -770.46777344 1596.92333984 C-768.47881039 1599.73739834 -766.49164676 1602.55272496 -764.50463867 1605.36816406 C-763.50237612 1606.78821219 -762.49993499 1608.2081343 -761.49731445 1609.62792969 C-759.00689439 1613.15477599 -756.51871538 1616.68316208 -754.03515625 1620.21484375 C-748.92767914 1627.47235112 -743.77954977 1634.69579586 -738.5625 1641.875 C-733.53776607 1648.79478501 -728.68103486 1655.81508137 -723.87744141 1662.88964844 C-719.6312997 1669.1241338 -715.25230766 1675.2519876 -710.81787109 1681.35351562 C-707.04773956 1686.54187487 -703.3197171 1691.7576623 -699.625 1697 C-699.16150146 1697.65758301 -698.69800293 1698.31516602 -698.22045898 1698.99267578 C-697.76872314 1699.63446777 -697.3169873 1700.27625977 -696.8515625 1700.9375 C-696.412277 1701.5410261 -695.9729915 1702.14455219 -695.52039433 1702.76636696 C-694 1705 -694 1705 -692.63775539 1707.54431725 C-689.53684805 1712.93800287 -689.53684805 1712.93800287 -684.28857613 1715.90654373 C-680.91146138 1716.23261729 -677.66327458 1716.23768373 -674.27172852 1716.13525391 C-673.00274216 1716.13671417 -671.7337558 1716.13817444 -670.42631531 1716.13967896 C-666.96259594 1716.14253751 -663.50237044 1716.08394346 -660.03946042 1716.01393938 C-656.41483072 1715.95123447 -652.7901122 1715.94553748 -649.1650238 1715.9336853 C-642.30795656 1715.90265834 -635.45249214 1715.82067702 -628.59612936 1715.72019041 C-620.78739477 1715.60824134 -612.97858179 1715.5533911 -605.16924393 1715.50323606 C-589.1118924 1715.39883441 -573.05615103 1715.2230553 -557 1715 C-558.10491703 1713.24849525 -559.21183308 1711.49825146 -560.31958008 1709.74853516 C-560.93577713 1708.77373199 -561.55197418 1707.79892883 -562.18684387 1706.79458618 C-564.52687912 1703.18793032 -567.06184819 1699.77599081 -569.6875 1696.375 C-573.87974153 1690.86428958 -577.96356081 1685.29520485 -581.9375 1679.625 C-586.1223344 1673.65461793 -590.34867323 1667.71775441 -594.625 1661.8125 C-598.83619895 1655.99647439 -603.02992558 1650.16901466 -607.19628906 1644.32080078 C-610.56744302 1639.59388603 -613.97015949 1634.8901856 -617.375 1630.1875 C-621.62242981 1624.31868597 -625.83239752 1618.42575593 -630 1612.5 C-636.25440541 1603.609287 -642.6211543 1594.80167137 -649 1586 C-655.88264459 1576.50317587 -662.7342194 1566.9884349 -669.48071289 1557.39428711 C-672.57751296 1552.9967802 -675.70428928 1548.62259446 -678.85888672 1544.26635742 C-679.94580743 1542.76533318 -681.03079622 1541.26290794 -682.11376953 1539.7590332 C-684.88920258 1535.90510535 -687.68702734 1532.07103798 -690.5234375 1528.26171875 C-691.64091304 1526.73719026 -692.75811068 1525.21245802 -693.875 1523.6875 C-694.40544922 1522.98818359 -694.93589844 1522.28886719 -695.48242188 1521.56835938 C-698.95256325 1516.7869635 -698.95256325 1516.7869635 -699.15234375 1513.47265625 C-697.46242355 1509.84648849 -695.15911133 1506.88057945 -692.6875 1503.75 C-691.58384138 1502.31671578 -690.48234229 1500.88176655 -689.3828125 1499.4453125 C-688.81852539 1498.70958008 -688.25423828 1497.97384766 -687.67285156 1497.21582031 C-685.05192464 1493.74420141 -682.55431311 1490.18989635 -680.0625 1486.625 C-674.33186663 1478.44923387 -668.49904764 1470.35100219 -662.64111328 1462.26611328 C-659.92351827 1458.513552 -657.21205527 1454.75656581 -654.5 1451 C-653.41669638 1449.49997854 -652.33336304 1447.99997854 -651.25 1446.5 C-650.71375 1445.7575 -650.1775 1445.015 -649.625 1444.25 C-618.75 1401.49999999 -618.75 1401.49999999 -617.12426758 1399.24902344 C-616.04332809 1397.75231299 -614.96243599 1396.25556832 -613.8815918 1394.75878906 C-611.1370246 1390.95817363 -608.39158034 1387.15819702 -605.64453125 1383.359375 C-597.70297727 1372.38067309 -597.70297727 1372.38067309 -589.83203125 1361.35131836 C-587.41543041 1357.94803756 -584.95265277 1354.58415445 -582.45703125 1351.23828125 C-581.55114258 1350.01334961 -581.55114258 1350.01334961 -580.62695312 1348.76367188 C-579.43484904 1347.15324063 -578.2345448 1345.54884116 -577.02539062 1343.95117188 C-576.48720703 1343.22091797 -575.94902344 1342.49066406 -575.39453125 1341.73828125 C-574.66520386 1340.76435425 -574.66520386 1340.76435425 -573.92114258 1339.77075195 C-573.61716553 1339.18640381 -573.31318848 1338.60205566 -573 1338 C-574.18515033 1334.44454901 -575.05043322 1334.01247154 -578.1015625 1331.98828125 C-578.97280762 1331.40336914 -579.84405273 1330.81845703 -580.74169922 1330.21582031 C-581.69318848 1329.58772461 -582.64467773 1328.95962891 -583.625 1328.3125 C-585.64137057 1326.9607469 -587.65697123 1325.60784477 -589.671875 1324.25390625 C-591.23905273 1323.20420654 -591.23905273 1323.20420654 -592.83789062 1322.13330078 C-597.88800317 1318.7262684 -602.88144549 1315.23917461 -607.875 1311.75 C-614.29796591 1307.27014321 -620.7270973 1302.80071482 -627.1875 1298.375 C-636.50809332 1291.98812176 -645.75238352 1285.49188385 -655 1279 C-658.00027882 1280.31192267 -659.72344655 1281.55195218 -661.671875 1284.17578125 C-662.16300781 1284.82796631 -662.65414063 1285.48015137 -663.16015625 1286.15209961 C-663.68480469 1286.86503174 -664.20945312 1287.57796387 -664.75 1288.3125 C-665.9111542 1289.86220709 -667.07262707 1291.41167545 -668.234375 1292.9609375 C-668.84603516 1293.78174805 -669.45769531 1294.60255859 -670.08789062 1295.44824219 C-672.02548063 1298.03400454 -673.98510636 1300.60139768 -675.953125 1303.1640625 C-687.14599545 1317.73946829 -697.91610396 1332.58164308 -708.48583984 1347.61303711 C-712.07420955 1352.70997954 -715.71459708 1357.76710956 -719.375 1362.8125 C-725.79593496 1371.66959339 -732.06429344 1380.62980993 -738.32421875 1389.60107422 C-745.46189335 1399.81884675 -752.68717148 1409.96904157 -760.00415039 1420.05908203 C-764.66448033 1426.50120108 -769.22189744 1433.01230768 -773.7668457 1439.53613281 C-777.64146812 1445.08773437 -781.57930858 1450.58839672 -785.5625 1456.0625 C-790.74629892 1463.18734451 -795.75916778 1470.4172961 -800.68774414 1477.72094727 C-801.19426514 1478.46916748 -801.70078613 1479.2173877 -802.22265625 1479.98828125 C-802.66359619 1480.64352783 -803.10453613 1481.29877441 -803.55883789 1481.97387695 C-805.28015361 1484.39386665 -807.13847424 1486.68677885 -809 1489 C-808.99717961 1488.31437082 -808.99435921 1487.62874163 -808.99145335 1486.9223358 C-808.82588592 1446.27166402 -808.72815945 1405.62132077 -808.71833299 1364.97029851 C-808.71709411 1360.08753927 -808.71528935 1355.2047804 -808.71313477 1350.32202148 C-808.71271534 1349.34996648 -808.71229592 1348.37791148 -808.71186379 1347.37640027 C-808.70372666 1331.64409043 -808.64976507 1315.91225539 -808.57881906 1300.18011775 C-808.50702446 1284.03320821 -808.48458903 1267.88677199 -808.50781661 1251.73971683 C-808.52059481 1241.77850421 -808.49503706 1231.8189133 -808.42018137 1221.85796741 C-808.37251601 1215.02403706 -808.37286802 1208.1911509 -808.41065188 1201.35716321 C-808.43103618 1197.41556581 -808.43056475 1193.47693898 -808.37295341 1189.53564453 C-807.28870291 1173.22420823 -807.28870291 1173.22420823 -812.86271095 1158.75034523 C-815.93408388 1155.81044778 -819.22564859 1153.92157608 -823 1152 C-824.31860871 1151.00343068 -825.61682622 1149.9781073 -826.875 1148.90625 C-827.90625 1148.1121875 -828.9375 1147.318125 -830 1146.5 C-835.15123163 1142.50245966 -840.15365922 1138.36596583 -845.10546875 1134.125 C-848.99249614 1130.81208562 -852.96740506 1127.63355562 -857 1124.5 C-862.24197422 1120.42605858 -867.34432765 1116.21979362 -872.39331055 1111.90966797 C-876.27312818 1108.60133299 -880.21650604 1105.39087795 -884.2109375 1102.22265625 C-887.80493657 1099.35853094 -891.37170995 1096.46162429 -894.9375 1093.5625 C-895.97366455 1092.72041992 -895.97366455 1092.72041992 -897.03076172 1091.86132812 C-901.00845162 1088.62645416 -904.97610543 1085.3797975 -908.9375 1082.125 C-915.93795748 1075.18354135 -915.93795748 1075.18354135 -924 1071 Z M-311 1118 C-315.88232222 1124.13158482 -320.19404947 1130.72020169 -324.51342773 1137.25415039 C-328.70225958 1143.5819932 -332.96549916 1149.85869143 -337.23184204 1156.1343689 C-348.83273534 1173.20084489 -360.23138104 1190.38490209 -371.51361084 1207.66384888 C-375.83497967 1214.28076632 -380.16760235 1220.89030085 -384.5 1227.5 C-390.50542492 1236.66312639 -396.50599504 1245.8293969 -402.5 1255 C-408.89923099 1264.79058375 -415.30620581 1274.5760611 -421.71807861 1284.35836792 C-425.80356829 1290.59142682 -429.88787096 1296.82521822 -433.9609375 1303.06640625 C-444.39352194 1319.05029817 -454.89302627 1334.98951587 -465.40966797 1350.91821289 C-471.34501698 1359.91150203 -477.26282023 1368.91564214 -483.13671875 1377.94921875 C-483.66775208 1378.76574921 -484.1987854 1379.58227966 -484.74591064 1380.42355347 C-488.94049345 1386.88479992 -493.06505568 1393.37635384 -497 1400 C-497.42571289 1400.71075684 -497.85142578 1401.42151367 -498.29003906 1402.15380859 C-521.20766016 1440.60731529 -540.5023112 1482.86510491 -540.375 1528.375 C-540.37445618 1529.11334076 -540.37391235 1529.85168152 -540.37335205 1530.61239624 C-540.3282009 1544.04161252 -539.08116327 1556.89620216 -536 1570 C-535.79101074 1570.89428711 -535.58202148 1571.78857422 -535.36669922 1572.70996094 C-527.81937591 1603.83772285 -512.23450246 1631.96062867 -490 1655 C-489.43297363 1655.59280762 -488.86594727 1656.18561523 -488.28173828 1656.79638672 C-479.42508706 1666.01666745 -470.3808112 1674.52428848 -460 1682 C-459.44086914 1682.40879395 -458.88173828 1682.81758789 -458.30566406 1683.23876953 C-421.51491094 1709.87780481 -377.10831193 1721.79190475 -332 1720 C-330.92314941 1719.95746094 -329.84629883 1719.91492187 -328.73681641 1719.87109375 C-291.60808405 1718.1944163 -255.02860174 1707.93930156 -224 1687 C-223.45359863 1686.63471191 -222.90719727 1686.26942383 -222.34423828 1685.89306641 C-178.77822091 1656.56382329 -149.1968327 1614.11332747 -137.82421875 1562.859375 C-135.44200589 1549.84703021 -134.62107856 1536.89153596 -134.6875 1523.6875 C-134.68932281 1522.92752716 -134.69114563 1522.16755432 -134.69302368 1521.384552 C-134.76764268 1502.83018552 -137.31455368 1485.68669082 -143 1468 C-143.20963379 1467.34112793 -143.41926758 1466.68225586 -143.63525391 1466.00341797 C-150.50065026 1444.95270691 -161.82544122 1425.40898956 -176.921875 1409.23046875 C-178.83026891 1407.18217378 -180.63624726 1405.07964403 -182.4375 1402.9375 C-185.80153302 1399.07852879 -189.50982493 1395.71270976 -193.35546875 1392.33984375 C-195.09473428 1390.80096627 -196.80703782 1389.23097024 -198.48828125 1387.62890625 C-232.03098947 1355.81677782 -276.67978793 1341.44175722 -322.21850586 1341.85473633 C-325.84630863 1342.04419851 -329.39911639 1342.51967456 -333 1343 C-318.67925738 1321.45369149 -304.28174663 1299.9607116 -289.80004883 1278.5222168 C-282.90671612 1268.32447142 -282.90671612 1268.32447142 -276.0625 1258.09375 C-269.28198499 1247.8979175 -262.40524889 1237.76616918 -255.55419922 1227.61767578 C-253.65044277 1224.7973849 -251.74701333 1221.97687369 -249.84375 1219.15625 C-249.23550888 1218.25507446 -248.62726776 1217.35389893 -248.00059509 1216.42541504 C-244.80710387 1211.69083408 -241.62897183 1206.94693413 -238.47265625 1202.1875 C-236.29333391 1198.90710182 -234.07406499 1195.66803488 -231.77734375 1192.46875 C-231.30232422 1191.80359375 -230.82730469 1191.1384375 -230.33789062 1190.453125 C-229.37754255 1189.11372741 -228.40830158 1187.78067452 -227.43164062 1186.453125 C-226.96822266 1185.79828125 -226.50480469 1185.1434375 -226.02734375 1184.46875 C-225.61218506 1183.89576172 -225.19702637 1183.32277344 -224.76928711 1182.73242188 C-223.83959929 1181.00420406 -223.83959929 1181.00420406 -224.14428711 1178.96386719 C-225.23434347 1176.46218007 -226.40926287 1175.63304566 -228.6640625 1174.109375 C-229.83485352 1173.305 -229.83485352 1173.305 -231.02929688 1172.484375 C-231.88587891 1171.91203125 -232.74246094 1171.3396875 -233.625 1170.75 C-235.46104468 1169.49494846 -237.29697787 1168.23973378 -239.1328125 1166.984375 C-240.57769043 1166.00500977 -240.57769043 1166.00500977 -242.05175781 1165.00585938 C-246.89552642 1161.71036394 -251.69505044 1158.35171357 -256.5 1155 C-258.44649086 1153.64695742 -260.39310493 1152.29409205 -262.33984375 1150.94140625 C-266.77265151 1147.85794306 -271.1953982 1144.76049117 -275.61401367 1141.65673828 C-283.77093017 1135.92924741 -291.96166824 1130.25313049 -300.1875 1124.625 C-301.15115479 1123.96363037 -302.11480957 1123.30226074 -303.10766602 1122.62084961 C-303.99381592 1122.01635986 -304.87996582 1121.41187012 -305.79296875 1120.7890625 C-306.97669067 1119.98009521 -306.97669067 1119.98009521 -308.18432617 1119.15478516 C-309.78200116 1117.91055624 -309.78200116 1117.91055624 -311 1118 Z " fill="#7C63FF" transform="translate(1672,0)"/>
<path d="M0 0 C0.81984375 0.74894531 1.6396875 1.49789063 2.484375 2.26953125 C3.26296875 2.96691406 4.0415625 3.66429687 4.84375 4.3828125 C20.65730456 19.29663034 29.4691626 39.2793749 30.45825195 60.93432617 C31.04656711 84.60931007 22.30323506 106.74955327 6.05908203 123.83789062 C-9.58321117 139.61312117 -31.23792035 149.15655591 -53.47949219 149.51147461 C-77.88487955 149.58900424 -98.98374535 141.91962011 -116.88671875 124.984375 C-133.23796731 108.09861311 -141.4688163 86.71830285 -141.5546875 63.37207031 C-141.16507431 42.40114014 -133.4855672 22.94632729 -119.515625 7.26953125 C-118.85046875 6.51027344 -118.1853125 5.75101563 -117.5 4.96875 C-86.98569147 -27.7493697 -33.25281727 -28.8748576 0 0 Z " fill="#7C63FF" transform="translate(1389.515625,1462.73046875)"/>
</svg>
