<?xml version="1.0" encoding="UTF-8"?>
<svg version="1.1" xmlns="http://www.w3.org/2000/svg" width="364" height="364">
<path d="M0 0 C120.12 0 240.24 0 364 0 C364 120.12 364 240.24 364 364 C243.88 364 123.76 364 0 364 C0 243.88 0 123.76 0 0 Z " fill="#0B3754" transform="translate(0,0)"/>
<path d="M0 0 C1.93410146 -0.02152959 3.86810683 -0.05557242 5.80175781 -0.10253906 C8.59321526 -0.16974259 11.38265089 -0.19703665 14.17480469 -0.21606445 C15.03236359 -0.24389511 15.88992249 -0.27172577 16.77346802 -0.30039978 C22.14096592 -0.28217404 25.62858594 0.6664405 29.51177979 4.50282288 C31.92901027 8.09447011 31.77072088 11.72036985 31.68652344 15.93237305 C31.69084885 16.83951553 31.69517426 17.74665802 31.69963074 18.68128967 C31.700011 20.59342579 31.68300715 22.50563515 31.6496582 24.41748047 C31.60466311 27.33145976 31.6288941 30.23904122 31.66113281 33.15307617 C31.6529107 35.01703137 31.64067361 36.88097408 31.62402344 38.74487305 C31.63303177 39.60862045 31.6420401 40.47236786 31.65132141 41.36228943 C31.5072926 46.70288546 30.50278664 50.25950381 26.6912384 54.1285553 C23.08388968 56.55303655 19.41965889 56.36346027 15.19433594 56.2644043 C13.82650719 56.2673349 13.82650719 56.2673349 12.43104553 56.27032471 C10.51048052 56.26633777 8.58988304 56.2451462 6.66967773 56.20776367 C3.73418863 56.15511353 0.80396504 56.16661388 -2.13183594 56.1862793 C-4.0023066 56.17446616 -5.87275838 56.15896599 -7.74316406 56.1394043 C-8.61723404 56.14325134 -9.49130402 56.14709839 -10.39186096 56.15106201 C-14.83717228 56.030791 -16.65485488 55.84712364 -20.23706055 52.98413086 C-22.65454952 49.82070294 -23.33209072 48.2883339 -23.40087891 44.40185547 C-23.41694183 43.57727341 -23.43300476 42.75269135 -23.44955444 41.90312195 C-23.49403309 38.13024731 -23.53507044 34.35754821 -23.55810547 30.58447266 C-23.57466332 28.59509583 -23.6019511 26.60577845 -23.64013672 24.61669922 C-23.69493045 21.74765175 -23.71678298 18.87999843 -23.73144531 16.01049805 C-23.75411469 15.12387985 -23.77678406 14.23726166 -23.80014038 13.32377625 C-23.78461305 8.77983629 -23.70085693 7.01112947 -20.73779297 3.3671875 C-19.90296387 2.71967529 -19.06813477 2.07216309 -18.20800781 1.4050293 C-15.23294119 -1.57003733 -4.22033507 0.03532408 0 0 Z " fill="#E1006C" transform="translate(255.2080078125,183.594970703125)"/>
<path d="M0 0 C1.98254143 -0.0165428 3.96502362 -0.0438107 5.94726562 -0.08203125 C8.80890781 -0.13691598 11.6691517 -0.15869282 14.53125 -0.17333984 C15.41270691 -0.19600922 16.29416382 -0.21867859 17.20233154 -0.24203491 C21.22283231 -0.228295 24.40491453 -0.02069539 27.79541016 2.27539062 C31.19179023 6.55707337 31.07001226 9.74475872 30.9609375 15.06884766 C30.96193451 16.00434448 30.96293152 16.93984131 30.96395874 17.90368652 C30.95928753 19.87728391 30.93988987 21.85089429 30.90673828 23.82421875 C30.85952614 26.84044214 30.86562204 29.85312957 30.87890625 32.86962891 C30.86775211 34.79022284 30.85353196 36.71080192 30.8359375 38.63134766 C30.83867172 39.97996887 30.83867172 39.97996887 30.84146118 41.35583496 C30.74713583 45.53365586 30.58873577 47.785943 28.32177734 51.39501953 C25.50366915 54.03448274 23.98311254 54.47656232 20.23120117 54.54296875 C19.40661911 54.55903168 18.58203705 54.5750946 17.73246765 54.59164429 C13.95959301 54.63612293 10.18689391 54.67716028 6.41381836 54.70019531 C4.42444153 54.71675316 2.43512415 54.74404094 0.44604492 54.78222656 C-2.42300255 54.83702029 -5.29065587 54.85887282 -8.16015625 54.87353516 C-9.04677444 54.89620453 -9.93339264 54.9188739 -10.84687805 54.94223022 C-15.390818 54.92670289 -17.15952483 54.84294677 -20.8034668 51.87988281 C-21.450979 51.04505371 -22.09849121 50.21022461 -22.765625 49.35009766 C-23.095625 49.02009766 -23.425625 48.69009766 -23.765625 48.35009766 C-23.90414642 45.30606556 -23.97884835 42.28641055 -24.00390625 39.24072266 C-24.011978 38.32176208 -24.02004974 37.40280151 -24.02836609 36.45599365 C-24.04222606 34.50567522 -24.05293962 32.55533234 -24.06079102 30.60498047 C-24.07797374 27.6263191 -24.12183867 24.64877606 -24.16601562 21.67041016 C-24.17614478 19.77718917 -24.18466019 17.88395872 -24.19140625 15.99072266 C-24.20891434 15.10096741 -24.22642242 14.21121216 -24.24446106 13.29449463 C-24.22985538 9.11450542 -24.12773727 6.92899379 -21.86401367 3.31005859 C-16.44205181 -1.75422411 -7.06159303 0.04320088 0 0 Z " fill="#FAC100" transform="translate(179.765625,108.64990234375)"/>
<path d="M0 0 C1.98254143 -0.0165428 3.96502362 -0.0438107 5.94726562 -0.08203125 C8.80890781 -0.13691598 11.6691517 -0.15869282 14.53125 -0.17333984 C15.41270691 -0.19600922 16.29416382 -0.21867859 17.20233154 -0.24203491 C21.22283231 -0.228295 24.40491453 -0.02069539 27.79541016 2.27539062 C31.19179023 6.55707337 31.07001226 9.74475872 30.9609375 15.06884766 C30.96193451 16.00434448 30.96293152 16.93984131 30.96395874 17.90368652 C30.95928753 19.87728391 30.93988987 21.85089429 30.90673828 23.82421875 C30.85952614 26.84044214 30.86562204 29.85312957 30.87890625 32.86962891 C30.86775211 34.79022284 30.85353196 36.71080192 30.8359375 38.63134766 C30.83867172 39.97996887 30.83867172 39.97996887 30.84146118 41.35583496 C30.74713583 45.53365586 30.58873577 47.785943 28.32177734 51.39501953 C25.50366915 54.03448274 23.98311254 54.47656232 20.23120117 54.54296875 C19.40661911 54.55903168 18.58203705 54.5750946 17.73246765 54.59164429 C13.95959301 54.63612293 10.18689391 54.67716028 6.41381836 54.70019531 C4.42444153 54.71675316 2.43512415 54.74404094 0.44604492 54.78222656 C-2.42300255 54.83702029 -5.29065587 54.85887282 -8.16015625 54.87353516 C-9.04677444 54.89620453 -9.93339264 54.9188739 -10.84687805 54.94223022 C-15.390818 54.92670289 -17.15952483 54.84294677 -20.8034668 51.87988281 C-21.450979 51.04505371 -22.09849121 50.21022461 -22.765625 49.35009766 C-23.095625 49.02009766 -23.425625 48.69009766 -23.765625 48.35009766 C-23.90414642 45.30606556 -23.97884835 42.28641055 -24.00390625 39.24072266 C-24.011978 38.32176208 -24.02004974 37.40280151 -24.02836609 36.45599365 C-24.04222606 34.50567522 -24.05293962 32.55533234 -24.06079102 30.60498047 C-24.07797374 27.6263191 -24.12183867 24.64877606 -24.16601562 21.67041016 C-24.17614478 19.77718917 -24.18466019 17.88395872 -24.19140625 15.99072266 C-24.20891434 15.10096741 -24.22642242 14.21121216 -24.24446106 13.29449463 C-24.22985538 9.11450542 -24.12773727 6.92899379 -21.86401367 3.31005859 C-16.44205181 -1.75422411 -7.06159303 0.04320088 0 0 Z " fill="#049373" transform="translate(102.765625,108.64990234375)"/>
<path d="M0 0 C1.98254143 -0.0165428 3.96502362 -0.0438107 5.94726562 -0.08203125 C8.80890781 -0.13691598 11.6691517 -0.15869282 14.53125 -0.17333984 C15.41270691 -0.19600922 16.29416382 -0.21867859 17.20233154 -0.24203491 C21.22283231 -0.228295 24.40491453 -0.02069539 27.79541016 2.27539062 C31.19179023 6.55707337 31.07001226 9.74475872 30.9609375 15.06884766 C30.96193451 16.00434448 30.96293152 16.93984131 30.96395874 17.90368652 C30.95928753 19.87728391 30.93988987 21.85089429 30.90673828 23.82421875 C30.85952614 26.84044214 30.86562204 29.85312957 30.87890625 32.86962891 C30.86775211 34.79022284 30.85353196 36.71080192 30.8359375 38.63134766 C30.83867172 39.97996887 30.83867172 39.97996887 30.84146118 41.35583496 C30.74713583 45.53365586 30.58873577 47.785943 28.32177734 51.39501953 C25.50366915 54.03448274 23.98311254 54.47656232 20.23120117 54.54296875 C19.40661911 54.55903168 18.58203705 54.5750946 17.73246765 54.59164429 C13.95959301 54.63612293 10.18689391 54.67716028 6.41381836 54.70019531 C4.42444153 54.71675316 2.43512415 54.74404094 0.44604492 54.78222656 C-2.42300255 54.83702029 -5.29065587 54.85887282 -8.16015625 54.87353516 C-9.04677444 54.89620453 -9.93339264 54.9188739 -10.84687805 54.94223022 C-15.34764948 54.9268504 -17.16443201 54.82658767 -20.8034668 51.94238281 C-24.19281988 47.4645738 -23.95764539 43.81533174 -24.00390625 38.36181641 C-24.011978 37.46646683 -24.02004974 36.57111725 -24.02836609 35.64863586 C-24.0422093 33.75137266 -24.05293039 31.85408453 -24.06079102 29.95678711 C-24.07799546 27.05941372 -24.12187777 24.16318387 -24.16601562 21.26611328 C-24.17614332 19.42302272 -24.18465918 17.57992245 -24.19140625 15.73681641 C-24.20891434 14.87207199 -24.22642242 14.00732758 -24.24446106 13.11637878 C-24.22964796 8.99474114 -24.10715067 6.89323266 -21.86401367 3.32592773 C-16.45980348 -1.76264389 -7.06087032 0.04319646 0 0 Z " fill="#049373" transform="translate(179.765625,183.64990234375)"/>
<path d="M0 0 C1.34302437 -0.00855011 1.34302437 -0.00855011 2.71318054 -0.01727295 C4.61045142 -0.0267289 6.50773876 -0.03325929 8.4050293 -0.03710938 C11.30221405 -0.04680139 14.19868537 -0.07781331 17.09570312 -0.109375 C18.93879787 -0.11590643 20.78189769 -0.12115635 22.625 -0.125 C23.48974442 -0.1373468 24.35448883 -0.1496936 25.24543762 -0.16241455 C29.98602981 -0.14493706 33.19041358 0.07797568 37.01171875 3.203125 C39.04344141 6.25070899 39.26612395 6.88755221 39.30224609 10.31982422 C39.3150058 11.14433075 39.3277655 11.96883728 39.34091187 12.81832886 C39.34313751 13.70585846 39.34536316 14.59338806 39.34765625 15.5078125 C39.35431305 16.42394318 39.36096985 17.34007385 39.36782837 18.28396606 C39.3779542 20.22233065 39.38264541 22.16073009 39.38232422 24.09912109 C39.38669224 27.06015733 39.42299784 30.01969679 39.4609375 32.98046875 C39.46680675 34.86457824 39.47077542 36.74869481 39.47265625 38.6328125 C39.48702728 39.51629364 39.50139832 40.39977478 39.51620483 41.31002808 C39.48539668 45.46973439 39.36518281 47.63952253 37.10791016 51.23876953 C34.28473674 53.88438487 32.76778037 54.32946003 29.00854492 54.39599609 C28.18396286 54.41205902 27.3593808 54.42812195 26.5098114 54.44467163 C22.73693676 54.48915028 18.96423766 54.53018763 15.19116211 54.55322266 C13.20178528 54.56978051 11.2124679 54.59706828 9.22338867 54.63525391 C6.3543412 54.69004764 3.48668788 54.71190017 0.6171875 54.7265625 C-0.26943069 54.74923187 -1.15604889 54.77190125 -2.0695343 54.79525757 C-6.61347425 54.77973023 -8.38218108 54.69597411 -12.02612305 51.73291016 C-12.67363525 50.89808105 -13.32114746 50.06325195 -13.98828125 49.203125 C-14.31828125 48.873125 -14.64828125 48.543125 -14.98828125 48.203125 C-15.12680267 45.1590929 -15.2015046 42.13943789 -15.2265625 39.09375 C-15.23463425 38.17478943 -15.24270599 37.25582886 -15.25102234 36.309021 C-15.26488231 34.35870257 -15.27559587 32.40835969 -15.28344727 30.45800781 C-15.30062999 27.47934645 -15.34449492 24.5018034 -15.38867188 21.5234375 C-15.39880103 19.63021651 -15.40731644 17.73698607 -15.4140625 15.84375 C-15.43157059 14.95399475 -15.44907867 14.0642395 -15.46711731 13.14752197 C-15.45251163 8.96753276 -15.35039352 6.78202114 -13.08666992 3.16308594 C-9.09824282 -0.56223026 -5.19840093 0.02536993 0 0 Z " fill="#049373" transform="translate(93.98828125,183.796875)"/>
<path d="M0 0 C0.88968979 -0.00004028 1.77937958 -0.00008057 2.69602966 -0.00012207 C4.56947934 0.00522028 6.44292943 0.02274793 8.31616211 0.05175781 C11.17827015 0.09367204 14.03802683 0.09281759 16.90039062 0.0859375 C18.72527671 0.09642909 20.55015072 0.10936703 22.375 0.125 C23.2271962 0.12520142 24.0793924 0.12540283 24.95741272 0.12561035 C29.64470838 0.21871104 32.83663599 0.52827152 36.62109375 3.59375 C38.64882963 6.63535382 38.87715998 7.28384764 38.92749023 10.71044922 C38.94347763 11.53495575 38.95946503 12.35946228 38.97593689 13.20895386 C38.98129959 14.09648346 38.98666229 14.98401306 38.9921875 15.8984375 C39.00573021 17.27263351 39.00573021 17.27263351 39.01954651 18.67459106 C39.0340546 20.6129428 39.04293713 22.55134358 39.04663086 24.48974609 C39.05852262 27.4510377 39.10769767 30.41024231 39.15820312 33.37109375 C39.16766802 35.25519817 39.17490274 37.13931538 39.1796875 39.0234375 C39.19921982 39.90691864 39.21875214 40.79039978 39.23887634 41.70065308 C39.20572185 46.23279192 39.10699428 47.997158 36.14868164 51.62939453 C35.31457764 52.27763184 34.48047363 52.92586914 33.62109375 53.59375 C33.29109375 53.92375 32.96109375 54.25375 32.62109375 54.59375 C29.64978109 54.71981495 26.70302203 54.78245342 23.73046875 54.796875 C22.38532196 54.80542511 22.38532196 54.80542511 21.01300049 54.81414795 C19.10975327 54.8236152 17.20648953 54.83013874 15.30322266 54.83398438 C12.3971669 54.84366316 9.49182625 54.87465889 6.5859375 54.90625 C4.73828546 54.91278249 2.89062834 54.91803199 1.04296875 54.921875 C0.17508728 54.9342218 -0.69279419 54.9465686 -1.5869751 54.95928955 C-6.33541622 54.94185227 -9.55242538 54.72650916 -13.37890625 51.59375 C-15.41827839 48.5346918 -15.63751869 47.84454144 -15.70117188 44.38525391 C-15.72038696 43.54072662 -15.73960205 42.69619934 -15.75939941 41.82608032 C-15.76789917 40.91667694 -15.77639893 40.00727356 -15.78515625 39.0703125 C-15.7965564 38.13198578 -15.80795654 37.19365906 -15.81970215 36.22689819 C-15.8385938 34.24148057 -15.85166684 32.25600035 -15.859375 30.27050781 C-15.87879255 27.23651544 -15.94083451 24.20523136 -16.00390625 21.171875 C-16.01696663 19.24220358 -16.02746746 17.3125128 -16.03515625 15.3828125 C-16.05984985 14.47745758 -16.08454346 13.57210266 -16.10998535 12.63931274 C-16.07783181 8.08144072 -15.84572935 6.17845116 -12.92407227 2.51904297 C-8.87961064 -0.21213148 -4.73723268 -0.09135585 0 0 Z " fill="#049373" transform="translate(95.37890625,31.40625)"/>
<path d="M0 0 C36.37719298 0 36.37719298 0 43.05859375 5.78125 C43.74115234 6.63203125 43.74115234 6.63203125 44.4375 7.5 C44.91058594 8.0671875 45.38367188 8.634375 45.87109375 9.21875 C49.1149294 14.33705123 48.7627988 21.2027291 48 27 C45.87931143 32.03388359 43.28014623 35.21768841 38.625 38.0625 C37.75875 38.371875 36.8925 38.68125 36 39 C37.99552881 45.85819671 41.37428084 52.10427 44.54296875 58.4765625 C44.98511719 59.3840625 45.42726562 60.2915625 45.8828125 61.2265625 C46.28902832 62.04721191 46.69524414 62.86786133 47.11376953 63.71337891 C48 66 48 66 48 70 C44.37 70 40.74 70 37 70 C35.14373245 66.05125409 33.2924537 62.10022073 31.44580078 58.14697266 C30.81664084 56.8019281 30.18611234 55.45752282 29.55419922 54.11376953 C28.64712342 52.18427549 27.74496389 50.25255007 26.84375 48.3203125 C26.29912109 47.15773926 25.75449219 45.99516602 25.19335938 44.79736328 C24 42 24 42 24 40 C19.71 40 15.42 40 11 40 C11 49.9 11 59.8 11 70 C7.37 70 3.74 70 0 70 C0 46.9 0 23.8 0 0 Z " fill="#F9FAFB" transform="translate(193,259)"/>
<path d="M0 0 C3.45505597 2.62650538 5.09264056 4.75323577 6.31640625 8.86328125 C6.4931923 11.60302077 6.57356913 14.23604912 6.546875 16.97265625 C6.54641678 17.74007141 6.54595856 18.50748657 6.54548645 19.29815674 C6.54247684 20.91184038 6.5346294 22.52552145 6.5222168 24.13916016 C6.50386453 26.61891866 6.50170794 29.09830541 6.50195312 31.578125 C6.49704108 33.14713867 6.49121413 34.7161498 6.484375 36.28515625 C6.48326218 37.02989197 6.48214935 37.77462769 6.48100281 38.54193115 C6.43248821 43.74719929 6.43248821 43.74719929 5.31640625 44.86328125 C3.63031659 44.93533636 1.94139966 44.94714193 0.25390625 44.92578125 C-0.66519531 44.91675781 -1.58429688 44.90773438 -2.53125 44.8984375 C-3.24152344 44.88683594 -3.95179688 44.87523437 -4.68359375 44.86328125 C-5.01359375 43.54328125 -5.34359375 42.22328125 -5.68359375 40.86328125 C-6.42609375 41.52328125 -7.16859375 42.18328125 -7.93359375 42.86328125 C-13.18662912 46.38194152 -19.88576208 45.41840103 -25.875 44.54296875 C-31.28626132 43.25735591 -33.70811015 40.32650665 -36.68359375 35.86328125 C-37.14303937 30.25804464 -36.88827181 26.67029833 -33.68359375 21.86328125 C-30.45111618 18.59547606 -27.36576477 16.00934162 -22.59887695 15.74975586 C-21.81859131 15.75499268 -21.03830566 15.76022949 -20.234375 15.765625 C-19.38681641 15.76884766 -18.53925781 15.77207031 -17.66601562 15.77539062 C-16.78494141 15.78376953 -15.90386719 15.79214844 -14.99609375 15.80078125 C-13.65708008 15.80754883 -13.65708008 15.80754883 -12.29101562 15.81445312 C-10.08847388 15.82623142 -7.88606776 15.84267961 -5.68359375 15.86328125 C-5.94752876 12.43097677 -5.94752876 12.43097677 -6.68359375 8.86328125 C-9.99958499 6.65262042 -11.29633864 6.5405293 -15.18359375 6.48828125 C-16.14265625 6.45992188 -17.10171875 6.4315625 -18.08984375 6.40234375 C-21.42441146 6.99493259 -21.76505589 8.20644427 -23.68359375 10.86328125 C-25.875 11.2890625 -25.875 11.2890625 -28.24609375 11.17578125 C-29.03113281 11.15128906 -29.81617188 11.12679688 -30.625 11.1015625 C-32.68359375 10.86328125 -32.68359375 10.86328125 -34.68359375 9.86328125 C-34.61006532 6.77508728 -34.30645843 4.59626565 -32.26953125 2.19921875 C-23.12683181 -5.97685167 -10.21575169 -6.89741007 0 0 Z " fill="#F2F5F6" transform="translate(281.68359375,284.13671875)"/>
<path d="M0 0 C4.43342672 3.15060649 6.54611918 6.96788999 7.6875 12.19921875 C7.6875 16.15921875 7.6875 20.11921875 7.6875 24.19921875 C-2.8725 24.19921875 -13.4325 24.19921875 -24.3125 24.19921875 C-23.3589646 32.75469303 -23.3589646 32.75469303 -18.3125 38.19921875 C-15.739171 39.48588325 -13.81026962 39.36746426 -10.9375 39.38671875 C-9.98101562 39.40089844 -9.02453125 39.41507812 -8.0390625 39.4296875 C-5.23810841 39.19293064 -3.66462233 38.6993501 -1.3125 37.19921875 C0.42175773 35.16604868 0.42175773 35.16604868 1.6875 33.19921875 C3.3375 33.85921875 4.9875 34.51921875 6.6875 35.19921875 C6.4348068 38.61057701 5.45245524 39.41859386 2.875 41.82421875 C-3.98317329 46.93423022 -9.84024737 46.99718673 -18.3125 46.19921875 C-23.51806405 43.77593893 -26.96383702 40.08441364 -29.40087891 34.87084961 C-30.97588419 30.25508026 -30.68143762 25.59646955 -30.6875 20.76171875 C-30.71199219 19.73755859 -30.73648438 18.71339844 -30.76171875 17.65820312 C-30.78913717 10.59796028 -29.72128766 6.78696776 -24.75 1.5546875 C-17.49991462 -4.33600687 -8.10560255 -4.65745308 0 0 Z " fill="#F4F6F7" transform="translate(107.3125,282.80078125)"/>
<path d="M0 0 C4.62 0 9.24 0 14 0 C14 23.1 14 46.2 14 70 C9.38 70 4.76 70 0 70 C0 46.9 0 23.8 0 0 Z " fill="#F9FAFA" transform="translate(323,259)"/>
<path d="M0 0 C2.65236689 1.8805465 4.71329306 3.60294518 6.69140625 6.19921875 C7.00390625 9.51171875 7.00390625 9.51171875 6.69140625 12.19921875 C4.38140625 12.19921875 2.07140625 12.19921875 -0.30859375 12.19921875 C-0.55609375 11.43609375 -0.80359375 10.67296875 -1.05859375 9.88671875 C-2.49113996 6.8067444 -3.39667396 5.89458145 -6.30859375 4.19921875 C-9.44554382 3.72468739 -9.44554382 3.72468739 -12.80859375 3.82421875 C-13.93265625 3.81648438 -15.05671875 3.80875 -16.21484375 3.80078125 C-19.55130783 4.23047738 -20.96304751 4.82527607 -23.30859375 7.19921875 C-23.70120481 10.34010725 -23.31551476 12.17845572 -22.30859375 15.19921875 C-20.31971677 16.12636674 -20.31971677 16.12636674 -17.87109375 16.69921875 C-16.96746094 16.94929688 -16.06382812 17.199375 -15.1328125 17.45703125 C-13.32332682 17.93255307 -11.51346411 18.40664387 -9.703125 18.87890625 C-3.98163233 20.45786082 0.99668132 22.48511521 5.69140625 26.19921875 C7.42002398 29.65645421 7.03985164 33.41234058 6.69140625 37.19921875 C5.22679515 41.07613048 2.88146412 43.52268398 -0.8203125 45.47265625 C-4.29896152 46.48839992 -7.71172571 46.60173377 -11.30859375 46.63671875 C-11.98494873 46.64678955 -12.66130371 46.65686035 -13.3581543 46.66723633 C-19.00409248 46.5706836 -23.63376917 45.35083588 -28.0859375 41.76953125 C-30.11578534 39.24076458 -31.26736319 37.57853989 -31.62109375 34.32421875 C-31.51796875 33.62296875 -31.41484375 32.92171875 -31.30859375 32.19921875 C-28.99859375 32.19921875 -26.68859375 32.19921875 -24.30859375 32.19921875 C-24.06109375 32.96234375 -23.81359375 33.72546875 -23.55859375 34.51171875 C-22.13313575 37.57645345 -21.18914747 38.49149695 -18.30859375 40.19921875 C-12.91444184 41.02281003 -7.9351239 41.04376325 -3.05859375 38.51171875 C-1.14836844 36.32264877 -1.14836844 36.32264877 -0.74609375 33.63671875 C-1.09146996 31.15323694 -1.09146996 31.15323694 -2.79296875 29.72265625 C-7.01452257 27.16612521 -11.76579448 26.05661013 -16.49023438 24.71289062 C-22.15074001 22.96792272 -26.23853919 20.54928454 -30.30859375 16.19921875 C-31.92904699 12.95831228 -31.86960678 9.70228851 -31.30859375 6.19921875 C-28.55014552 1.63053887 -25.77447096 -0.71975291 -20.6796875 -2.328125 C-13.45956651 -3.76739129 -6.4435694 -3.83385653 0 0 Z " fill="#EFF1F3" transform="translate(150.30859375,282.80078125)"/>
<path d="M0 0 C15.18 0 30.36 0 46 0 C46 1.98 46 3.96 46 6 C39.4 6 32.8 6 26 6 C26 27.12 26 48.24 26 70 C23.69 70 21.38 70 19 70 C19 49.21 19 28.42 19 7 C13.06 7 7.12 7 1 7 C0.67 6.67 0.34 6.34 0 6 C0 4.02 0 2.04 0 0 Z " fill="#ECF0F2" transform="translate(27,259)"/>
<path d="M0 0 C2.31 0 4.62 0 7 0 C7 4.29 7 8.58 7 13 C11.62 13 16.24 13 21 13 C21 14.65 21 16.3 21 18 C20 19 20 19 17.05859375 19.09765625 C15.86363281 19.08605469 14.66867188 19.07445312 13.4375 19.0625 C11.64119141 19.04896484 11.64119141 19.04896484 9.80859375 19.03515625 C8.88175781 19.02355469 7.95492187 19.01195312 7 19 C7.06905248 23.46628401 7.15710231 27.93167585 7.26245117 32.3972168 C7.29561916 33.91501621 7.32367632 35.43293656 7.34643555 36.95092773 C7.38013278 39.13838019 7.43245204 41.32473264 7.48828125 43.51171875 C7.51446533 44.82615967 7.54064941 46.14060059 7.56762695 47.49487305 C8.01888947 51.15313161 8.75631684 53.10553981 11 56 C13.25339498 56.8106196 13.25339498 56.8106196 15.6875 56.8125 C16.49574219 56.86019531 17.30398437 56.90789062 18.13671875 56.95703125 C18.75160156 56.97121094 19.36648437 56.98539062 20 57 C20 58.98 20 60.96 20 63 C17.93867858 63.10864945 15.87568679 63.18588321 13.8125 63.25 C12.66394531 63.29640625 11.51539063 63.3428125 10.33203125 63.390625 C6.31400228 62.91957823 4.81157638 61.85652165 2 59 C-0.62197054 55.21808198 -0.25480089 51.15346315 -0.1953125 46.734375 C-0.19106766 45.54427826 -0.19106766 45.54427826 -0.18673706 44.33013916 C-0.17556779 41.80327083 -0.15046944 39.27676068 -0.125 36.75 C-0.11496598 35.0338593 -0.10584087 33.31771302 -0.09765625 31.6015625 C-0.07563914 27.40090426 -0.04113187 23.2005128 0 19 C-1.7015625 19.0309375 -1.7015625 19.0309375 -3.4375 19.0625 C-7 19 -7 19 -8 18 C-8.04063832 16.33382885 -8.042721 14.66611905 -8 13 C-5.36 13 -2.72 13 0 13 C0 8.71 0 4.42 0 0 Z " fill="#F2F4F6" transform="translate(165,266)"/>
<path d="M0 0 C3.96 0 7.92 0 12 0 C12 17.16 12 34.32 12 52 C8.04 52 4.08 52 0 52 C0 34.84 0 17.68 0 0 Z " fill="#F2F4F6" transform="translate(299,277)"/>
<path d="M0 0 C4.7953125 -0.1546875 4.7953125 -0.1546875 9.6875 -0.3125 C11.18543091 -0.38078003 11.18543091 -0.38078003 12.71362305 -0.45043945 C17.22439773 -0.5208848 19.35074033 -0.47809869 23.08203125 2.26953125 C25.87042074 6.23915294 26 8.15825323 26 13 C24.29406077 17.26484807 22.11924608 19.08962501 18 21 C14.88285015 21.35600673 11.81950002 21.28316159 8.6875 21.1875 C5.820625 21.125625 2.95375 21.06375 0 21 C0 14.07 0 7.14 0 0 Z " fill="#103B58" transform="translate(204,269)"/>
<path d="M0 0 C4.19007214 1.93984821 5.66056548 3.37770339 7.875 7.4375 C9 11 9 11 9 16 C0.42 16 -8.16 16 -17 16 C-17 8.5300553 -16.6165899 6.84746548 -11.875 1.6875 C-7.8507444 -0.67456307 -4.5582723 -0.77981025 0 0 Z " fill="#1B445F" transform="translate(100,286)"/>
<path d="M0 0 C1.63001953 0.01353516 1.63001953 0.01353516 3.29296875 0.02734375 C4.12441406 0.03894531 4.95585937 0.05054688 5.8125 0.0625 C6.4245761 7.28499793 6.4245761 7.28499793 3.5 11 C-0.70236715 14.22507246 -3.98484374 14.42759869 -9.1875 14.0625 C-11.625 13 -11.625 13 -13.1875 11.0625 C-13.6875 7.5625 -13.6875 7.5625 -13.1875 4.0625 C-9.35888059 0.10185923 -5.27170896 -0.05668504 0 0 Z " fill="#18425D" transform="translate(270.1875,306.9375)"/>
<path d="M0 0 C3.4375 0.9375 3.4375 0.9375 5.375 2.0625 C7.1087306 5.12202459 6.85895216 7.50567525 6.4375 10.9375 C4.8125 13.375 4.8125 13.375 2.4375 14.9375 C-1.19882575 15.54355429 -2.84564769 15.40911336 -5.9375 13.375 C-8.18590519 10.00239221 -8.13033945 7.91237617 -7.5625 3.9375 C-5.29401339 0.30792142 -4.30870043 -0.07559124 0 0 Z " fill="#EEF1F3" transform="translate(305.5625,255.0625)"/>
</svg>
